<svg xmlns:dc="http://purl.org/dc/elements/1.1/" xmlns:cc="http://creativecommons.org/ns#" xmlns:rdf="http://www.w3.org/1999/02/22-rdf-syntax-ns#" xmlns:svg="http://www.w3.org/2000/svg" xmlns="http://www.w3.org/2000/svg" xmlns:sodipodi="http://sodipodi.sourceforge.net/DTD/sodipodi-0.dtd" xmlns:inkscape="http://www.inkscape.org/namespaces/inkscape" version="1.1" x="0px" y="0px" viewBox="0 0 100 125"><path style="" d="M 21.125 63 C 19.506831 63.014358 18.230965 63.409225 16.53125 65 C 12.296767 70.897424 9.5351388 75.855231 5.3125 81.65625 L 5.3125 81.6875 C 4.83888 82.2409 3.94901 84.256476 3.96875 85.3125 L 3.96875 92.78125 C 3.968565 92.79172 3.96875 92.80198 3.96875 92.8125 C 3.96875 93.649091 4.587156 94.37085 5.375 94.53125 L 13.1875 94.53125 L 22.375 94.53125 L 31.59375 94.53125 L 40.8125 94.53125 L 50 94.53125 L 59.1875 94.53125 L 68.40625 94.53125 L 77.625 94.53125 L 86.8125 94.53125 L 94.625 94.53125 C 95.412844 94.37085 96.03125 93.649091 96.03125 92.8125 L 96.03125 92.78125 L 96.03125 85.34375 C 96.05082 84.296815 95.164181 82.292565 94.6875 81.71875 C 94.682518 81.711839 94.692483 81.694415 94.6875 81.6875 C 90.805636 76.299978 86.741547 69.615259 83.21875 64.6875 C 81.975831 63.588789 80.947362 63.142937 79.8125 63 L 64.65625 63 C 63.940222 63.000196 63.588551 63.103293 63.40625 63.625 C 62.745123 66.090867 61.32776 68.253733 59.40625 69.8125 C 57.35822 71.473903 54.76159 72.46875 51.90625 72.46875 L 48.84375 72.46875 C 45.987003 72.46875 43.383073 71.47538 41.34375 69.8125 C 39.4399 68.260086 38.009539 66.108983 37.34375 63.65625 C 37.161449 63.134543 36.809778 63.000196 36.09375 63 L 21.125 63 z M 70.1875 74.28125 L 76.3125 74.28125 L 82.46875 74.28125 C 84.101536 74.28125 85.375 75.585963 85.375 77.21875 C 85.375 78.851538 84.101536 80.1875 82.46875 80.1875 L 76.3125 80.1875 L 70.1875 80.1875 C 68.554714 80.1875 67.28125 78.851538 67.28125 77.21875 C 67.28125 75.585963 68.554714 74.28125 70.1875 74.28125 z " fill="#000000" fill-opacity="1" stroke-width="0" display="inline"/><path style="" d="M 48.544138,59.60266 C 48.285737,51.462009 46.098198,19.657891 45.024374,12.618985 l 5.608602,0.282062 6.254912,0.05642 c -1.350141,6.171381 -4.205916,38.222802 -4.448358,46.521512 0,0.133108 -0.836372,0.233286 -1.947694,0.233286 -1.071229,0 -1.947692,-0.04931 -1.947698,-0.109598 z" fill="#000000" fill-opacity="1" stroke="#000000" stroke-width="14.28637028" stroke-linecap="round" stroke-linejoin="round" stroke-miterlimit="4" stroke-dasharray="none" display="inline"/><text x="0" y="115" fill="#000000" font-size="5px" font-weight="bold" font-family="'Helvetica Neue', Helvetica, Arial-Unicode, Arial, Sans-serif">Created by Dallin Christensen</text><text x="0" y="120" fill="#000000" font-size="5px" font-weight="bold" font-family="'Helvetica Neue', Helvetica, Arial-Unicode, Arial, Sans-serif">from the Noun Project</text></svg>